<svg width="350" height="230" viewBox="0 0 350 230" fill="none" xmlns="http://www.w3.org/2000/svg">
<path d="M17.9572 211.191C-9.08601 170.663 6.34864 129.914 37.5076 106.787C69.1821 83.2782 33.4241 34.641 96.467 14.8497C129.08 4.61124 157.76 32.5334 189.726 33.7466C218.37 34.8338 248.002 10.2097 277.085 21.6168C296.533 28.1831 315.975 46.611 314.525 68.6444C313.776 80.03 307.142 93.5081 314.011 102.158C343.001 138.662 340.013 170.592 328.652 210.679C328.655 210.678 17.9572 211.191 17.9572 211.191Z" fill="#FFDEEE"/>
<path d="M330.943 212.683H16.1995C15.439 212.683 14.8223 212.067 14.8223 211.306C14.8223 210.545 15.439 209.929 16.1995 209.929H330.943C331.704 209.929 332.32 210.545 332.32 211.306C332.32 212.067 331.704 212.683 330.943 212.683Z" fill="#DEDEDE"/>
<path d="M330.549 163.801C330.549 163.801 333.055 166.532 331.647 172.814C330.21 179.214 331.698 183.079 331.698 183.079L329.65 185.892C329.65 185.892 327.692 179.941 329.091 174.853C330.85 168.486 330.549 163.801 330.549 163.801Z" fill="#CB5A90"/>
<path d="M338.601 163.721C338.601 163.721 339.701 166.222 337.454 170.616C335.157 175.092 335.354 178.243 335.354 178.243L333.622 180.475C333.622 180.475 333.326 175.159 335.325 171.646C337.82 167.252 338.601 163.721 338.601 163.721Z" fill="#CB5A90"/>
<path d="M326.4 171.139C326.4 171.139 324.45 173.329 324.541 180.276C324.615 185.937 326.516 188.453 326.542 191.928L328.998 187.555C328.639 185.172 326.769 183.993 326.454 178.863C326.157 174.059 326.4 171.139 326.4 171.139Z" fill="#CB5A90"/>
<path d="M310.17 196.085C310.17 196.085 309.773 198.999 313.721 204.709C316.939 209.368 319.783 209.409 320.583 210.469L321.115 207.6C319.203 205.926 317.644 206.556 314.521 202.473C311.595 198.64 310.17 196.085 310.17 196.085Z" fill="#CB5A90"/>
<path d="M321.925 176.562C321.925 176.562 321.43 181.601 321.772 184.656C322.251 189.001 324.457 190.86 325.265 195.262L323.611 198.646C323.611 198.646 320.468 194.576 320.092 189.192C319.46 180.157 321.925 176.562 321.925 176.562Z" fill="#CB5A90"/>
<path d="M314.382 180.668C315.496 183.281 316.223 186.043 316.538 188.866C317.431 197.428 323.042 202.412 323.042 202.412L321.976 204.746C321.976 204.746 315.565 201.642 315.016 194.431C314.445 186.809 314.382 180.668 314.382 180.668Z" fill="#CB5A90"/>
<path d="M328.959 188.186C328.959 188.186 330.756 187.027 339.15 186.14C344.529 185.573 342.534 183.955 347.816 184.283C344.143 185.5 343.512 188.54 338.54 189.358C334.562 190.01 330.642 190.972 326.814 192.236L328.959 188.186Z" fill="#CB5A90"/>
<path d="M346.016 189.751C346.016 189.751 343.767 194.536 336.416 195.727C331.894 196.471 327.525 197.954 323.484 200.116L324.805 195.958C324.805 195.958 327.286 193.077 335.049 192.572C340.382 192.225 346.016 189.751 346.016 189.751Z" fill="#CB5A90"/>
<path d="M343.329 197.64C343.329 197.64 341.081 202.424 333.73 203.615C329.208 204.359 324.839 205.842 320.798 208.003L322.119 203.846C322.119 203.846 324.6 200.965 332.362 200.461C337.695 200.113 343.329 197.64 343.329 197.64Z" fill="#CB5A90"/>
<path d="M347.997 175.311C347.997 175.311 346.184 177.946 341.51 178.524C336.77 179.107 333.608 180.905 333.608 180.905L334.587 179.237C334.587 179.237 336.155 177.416 341.062 177.095C344.435 176.873 347.997 175.311 347.997 175.311Z" fill="#CB5A90"/>
<path d="M332.174 183.596C332.174 183.596 335.648 182.394 340.987 181.619C344.353 181.119 348.273 178.096 348.273 178.096C348.273 178.096 346.005 183.623 340.898 184.061C335.042 184.561 329.633 186.645 329.633 186.645L332.174 183.596Z" fill="#CB5A90"/>
<path d="M334.37 179.865C334.37 179.865 336.229 174.53 340.975 172.438C343.777 171.175 346.348 169.452 348.583 167.341C348.583 167.341 346.968 172.775 342.406 174.226C338.198 175.576 335.89 179.109 335.89 179.109L334.37 179.865Z" fill="#CB5A90"/>
<path d="M321.004 210.459L320.186 210.324C321.019 205.274 326.142 188.299 335.266 178.282L335.88 178.841C326.882 188.72 321.829 205.474 321.004 210.459Z" fill="#CB5A90"/>
<path d="M22.4056 135.732C22.4056 135.732 19.5187 138.615 20.765 145.589C22.0366 152.696 20.2158 156.874 20.2158 156.874L22.3317 160.065C22.3317 160.065 24.7712 153.617 23.4778 147.955C21.85 140.869 22.4056 135.732 22.4056 135.732Z" fill="#CB5A90"/>
<path d="M13.557 135.257C13.557 135.257 12.227 137.955 14.4854 142.894C16.7969 147.926 16.4283 151.381 16.4283 151.381L18.2254 153.918C18.2254 153.918 18.8059 148.088 16.7773 144.13C14.2452 139.178 13.557 135.257 13.557 135.257Z" fill="#CB5A90"/>
<path d="M26.6148 144C26.6148 144 28.6545 146.502 28.2196 154.136C27.8663 160.357 25.6549 163.032 25.4601 166.851L22.9697 161.925C23.4788 159.322 25.5912 158.116 26.185 152.49C26.7426 147.223 26.6148 144 26.6148 144Z" fill="#CB5A90"/>
<path d="M43.2606 172.21C43.2606 172.21 43.5578 175.433 38.9421 181.521C35.1794 186.489 32.0508 186.397 31.1198 187.525L30.6729 184.345C32.8559 182.596 34.5391 183.363 38.1693 179.024C41.5709 174.951 43.2606 172.21 43.2606 172.21Z" fill="#CB5A90"/>
<path d="M31.2737 150.178C31.2737 150.178 31.5764 155.742 31.0531 159.085C30.318 163.839 27.8028 165.777 26.7031 170.579L28.3582 174.379C28.3582 174.379 32.0103 170.055 32.6827 164.153C33.8116 154.25 31.2737 150.178 31.2737 150.178Z" fill="#CB5A90"/>
<path d="M39.3705 155.056C38.0194 157.875 37.0878 160.877 36.6057 163.966C35.2114 173.337 28.4893 178.822 28.4893 178.822L29.8628 181.165C29.8628 181.165 37.0615 178.061 38.0114 170.158C39.0059 161.805 39.3705 155.056 39.3705 155.056Z" fill="#CB5A90"/>
<path d="M22.9805 162.622C22.9805 162.622 21.0612 161.261 11.8748 159.882C5.9873 159 8.2584 157.317 2.43555 157.423C6.41487 158.938 6.96225 162.311 12.3906 163.449C16.7325 164.357 20.9968 165.603 25.1442 167.177L22.9805 162.622Z" fill="#CB5A90"/>
<path d="M4.15234 163.522C4.15234 163.522 6.39475 168.89 14.4202 170.553C19.3565 171.589 24.0889 173.43 28.4279 176.001L27.1757 171.366C27.1757 171.366 24.5861 168.079 16.0755 167.151C10.2283 166.512 4.15234 163.522 4.15234 163.522Z" fill="#CB5A90"/>
<path d="M6.72656 172.325C6.72656 172.325 8.96909 177.693 16.9944 179.356C21.9308 180.392 26.6631 182.232 31.0021 184.804L29.7499 180.169C29.7499 180.169 27.1604 176.882 18.6497 175.954C12.8027 175.315 6.72656 172.325 6.72656 172.325Z" fill="#CB5A90"/>
<path d="M2.66797 147.549C2.66797 147.549 4.5349 150.533 9.64605 151.393C14.8297 152.263 18.2199 154.391 18.2199 154.391L17.2238 152.511C17.2238 152.511 15.5873 150.433 10.208 149.845C6.50936 149.439 2.66797 147.549 2.66797 147.549Z" fill="#CB5A90"/>
<path d="M19.6678 157.42C19.6678 157.42 15.9062 155.932 10.0733 154.823C6.39553 154.112 2.23145 150.599 2.23145 150.599C2.23145 150.599 4.45871 156.785 10.0526 157.512C16.4675 158.343 22.3152 160.894 22.3152 160.894L19.6678 157.42Z" fill="#CB5A90"/>
<path d="M17.432 153.211C17.432 153.211 15.6441 147.256 10.5267 144.728C7.50667 143.204 4.76244 141.186 2.40723 138.757C2.40723 138.757 3.92083 144.81 8.86765 146.625C13.4299 148.312 15.7968 152.307 15.7968 152.307L17.432 153.211Z" fill="#CB5A90"/>
<path d="M30.6569 187.494L31.5635 187.384C30.8899 181.792 26.0739 162.881 16.5229 151.429L15.8213 152.014C25.2392 163.308 29.9899 181.973 30.6569 187.494Z" fill="#CB5A90"/>
<path d="M199.544 187.545L194.7 210.039C194.571 210.639 194.356 210.998 194.125 210.998C193.698 210.998 193.373 209.798 193.439 208.472L194.494 187.545H199.544Z" fill="#666666"/>
<path d="M322.872 187.545L327.715 210.039C327.844 210.639 328.06 210.998 328.29 210.998C328.717 210.998 329.043 209.798 328.976 208.472L327.922 187.545H322.872Z" fill="#666666"/>
<path d="M285.325 187.545L290.168 210.039C290.298 210.639 290.513 210.998 290.743 210.998C291.17 210.998 291.496 209.798 291.429 208.472L290.375 187.545H285.325Z" fill="#666666"/>
<path d="M250.093 191.598H198.43C195.434 191.598 193.005 189.17 193.005 186.173V158.593C193.005 156.264 194.894 154.375 197.223 154.375H250.093L250.093 191.598Z" fill="#B3B4B6"/>
<path d="M260.924 191.598H209.261C206.265 191.598 203.836 189.17 203.836 186.173V158.593C203.836 156.264 205.725 154.375 208.055 154.375H260.924L260.924 191.598Z" fill="#666666"/>
<path d="M321.841 163.789H229.473V144.394C229.473 142.158 231.285 140.345 233.522 140.345H321.841V163.789Z" fill="#B3B4B6"/>
<path d="M328.124 163.151H208.687C205.955 163.151 203.74 165.366 203.74 168.098V173.803H328.125L328.124 163.151Z" fill="#D5D5D5"/>
<path d="M203.741 191.625L328.125 191.625V172.565H203.741V191.625Z" fill="#B3B4B6"/>
<path d="M328.113 163.789H315.57V140.345H324.064C326.3 140.345 328.113 142.158 328.113 144.394V163.789Z" fill="#666666"/>
<path d="M203.581 205.181L199.558 206.491L197.643 202.957C197.808 202.816 197.914 200.375 197.956 198.52L204.622 198.99C204.422 200.873 204.039 203.343 203.581 205.181Z" fill="#F37A50"/>
<path d="M196.502 207.812C196.502 207.812 194.928 205.527 193.125 205.497C193.125 205.497 189.754 205.917 188.662 207.419C188.319 207.891 188.526 208.835 188.714 209.436C188.831 209.811 189.182 210.203 190.203 210.451C191.712 210.817 193.723 210.969 197.33 209.773C201.657 208.337 202.391 208.76 203.984 208.127C205.634 207.471 204.954 205.446 204.36 203.469C204.36 203.469 203.297 206.008 196.502 207.812Z" fill="#272627"/>
<path d="M197.508 202.608C197.508 202.608 195.622 203.929 193.092 204.691C191.676 205.117 187.893 206.116 188.681 208.63C188.798 209.005 189.149 209.397 190.17 209.645C191.679 210.011 193.69 210.163 197.297 208.966C201.624 207.531 202.358 207.954 203.951 207.321C205.601 206.665 204.667 204.377 204.073 202.4C204.065 202.912 203.918 204.265 200.939 205.668C200.049 206.086 200.527 202.009 197.508 202.608Z" fill="#343434"/>
<path d="M219.547 204.711L215.626 206.301L213.467 202.911C213.622 202.76 213.556 200.317 213.467 198.463H220.15C220.083 200.355 219.875 202.847 219.547 204.711Z" fill="#F37A50"/>
<path d="M223.279 159.569C214.249 161.848 201.661 168.636 200.47 170.069C198.011 173.028 197.813 182.684 197.703 199.812H205.024C207.088 186.3 209.735 180.309 209.828 174.871C209.828 174.871 216.871 174.888 227.148 170.113C232.215 167.759 237.478 165.056 235.604 160.462C234.112 156.802 231.889 157.395 223.279 159.569Z" fill="#291F23"/>
<path d="M233.278 158.739C225.735 160.03 216.185 169.397 214.994 170.83C212.534 173.788 213.576 183.312 213.466 200.441H220.377C221.077 191.524 224.529 181.358 224.085 174.875C224.085 174.875 231.508 173.774 241.786 168.999C246.852 166.646 251.996 166.879 250.768 160.994C249.961 157.125 242.031 157.24 233.278 158.739Z" fill="#291F21"/>
<path d="M210.913 127.981C212.821 126.057 211.569 124.083 211.569 124.083C212.616 123.858 218.139 132.225 220.52 137.541C224.674 133.354 231.993 127.701 233.972 127.371C233.972 127.371 236.642 126.653 237.602 129.881C238.458 132.763 235.118 134.804 235.118 134.804C235.118 134.804 220.832 144.89 218.719 143.994C215.431 142.599 212.456 130.594 210.913 127.981Z" fill="#F37A50"/>
<path d="M207.93 127.743C209.096 127.814 210.538 127.238 210.987 128.283L213.288 127.161L213.427 125.774C211.45 122.606 206.631 121.707 206.154 121.665C204.914 121.556 204.339 121.429 204.242 121.594C204.145 121.76 203.841 122.864 205.64 123.08C207.897 123.351 206.399 125.155 201.819 123.437C200.673 123.007 198.515 123.566 199.295 124.404C200.155 125.327 202.626 127.42 207.93 127.743Z" fill="#F37A50"/>
<path d="M233.286 129.728C229.73 129.235 224.076 127.708 226.461 122.229C228.846 116.751 229.199 118.847 226.756 113.321C224.312 107.796 227.463 102.377 231.627 102.699C235.791 103.022 237.462 105.983 242.098 104.164C246.734 102.345 251.679 105.996 250.694 110.276C249.709 114.556 249.333 116.596 251.481 118.396C253.628 120.196 261.741 120.909 259.655 126.75C257.568 132.59 256.044 132.581 257.709 134.997C259.373 137.413 257.464 140.968 252.958 141.49C248.452 142.012 244.099 141.187 241.436 136.596C238.773 132.005 233.286 129.728 233.286 129.728Z" fill="#272627"/>
<path d="M225.678 131.804C228.691 129.979 233.678 124.871 237.469 126.384C241.26 127.898 239.973 132.483 238.159 134.378C236.345 136.274 230.711 140.612 230.711 140.612L225.678 131.804Z" fill="#FDA4CC"/>
<path d="M250.311 159.939C248.623 151.233 249.036 151.252 248.335 147.154C246.603 137.027 255.522 128.898 242.484 124.885L236.71 126.164C231.163 128.903 230.078 133.828 229.531 137.189C228.491 143.588 229.4 153.139 229.4 153.139L227.218 158.593C227.218 158.593 228.732 160.112 235.909 161.468C243.086 162.824 250.311 159.939 250.311 159.939Z" fill="#FDA4CC"/>
<path d="M251.633 134.076C253.018 139.205 253.166 156.165 251.991 157.685L246.043 154.386C246.043 154.386 243.289 136.73 242.974 133.777C242.417 128.666 249.387 125.698 251.633 134.076Z" fill="#F37A50"/>
<path d="M242.866 142.166C242.314 138.268 241.578 130.817 244.849 128.375C248.12 125.934 251.252 128.909 251.92 131.446C252.588 133.984 253.343 141.054 253.343 141.054L242.866 142.166Z" fill="#FDA4CC"/>
<path d="M244.774 116.166C244.651 120.77 241.62 124.423 238.004 124.327C234.389 124.23 231.558 120.42 231.681 115.817C231.804 111.213 234.834 107.56 238.45 107.656C242.065 107.753 244.897 111.563 244.774 116.166Z" fill="#F37A50"/>
<path d="M243.594 118.827L238.625 123.581C238.625 123.581 238.651 126.215 238.571 127.089C238.406 128.892 240.566 129.208 242.036 127.797C243.506 126.385 243.639 124.885 243.639 124.885L243.594 118.827Z" fill="#F37A50"/>
<path d="M230.933 114.226C232.587 114.023 236.049 112.996 237.011 111.202C238.58 114.1 243.093 116.22 246.603 116.92C246.062 113.721 244.805 107.891 238.606 106.668C233.737 105.708 230.933 114.226 230.933 114.226Z" fill="#272627"/>
<path d="M233.46 116.863C233.372 117.2 233.029 117.401 232.693 117.314C232.357 117.227 232.155 116.884 232.242 116.547C232.329 116.211 232.673 116.009 233.009 116.097C233.345 116.184 233.547 116.527 233.46 116.863Z" fill="black"/>
<path d="M238.622 116.797C238.528 117.161 238.156 117.38 237.792 117.285C237.428 117.191 237.21 116.819 237.304 116.455C237.399 116.091 237.77 115.873 238.134 115.967C238.498 116.061 238.717 116.433 238.622 116.797Z" fill="black"/>
<path d="M239.242 116.09C239.191 116.077 239.145 116.047 239.112 116.002C238.626 115.353 237.694 115.403 237.684 115.404C237.554 115.412 237.442 115.313 237.433 115.183C237.425 115.052 237.523 114.94 237.653 114.931C237.701 114.928 238.848 114.86 239.491 115.719C239.569 115.824 239.548 115.972 239.443 116.05C239.383 116.095 239.309 116.107 239.242 116.09Z" fill="#272627"/>
<path d="M232.006 116.018C231.981 116.012 231.957 116.002 231.935 115.987C231.825 115.915 231.795 115.768 231.867 115.659C232.426 114.811 233.359 114.917 233.398 114.922C233.527 114.938 233.62 115.056 233.604 115.186C233.588 115.315 233.47 115.407 233.341 115.392C233.31 115.388 232.656 115.324 232.263 115.92C232.205 116.006 232.101 116.043 232.006 116.018Z" fill="#272627"/>
<path d="M234.215 117.881C233.951 118.3 233.73 118.721 233.451 118.992C233.357 119.083 233.352 119.235 233.439 119.334C233.797 119.741 234.638 119.96 235.146 120.06C235.22 120.074 235.257 119.973 235.191 119.936C234.633 119.623 234.367 119.362 234.247 119.213C234.187 119.139 234.168 119.041 234.192 118.949C234.248 118.738 234.358 118.309 234.42 117.959C234.441 117.839 234.28 117.778 234.215 117.881Z" fill="#DE623C"/>
<path d="M243.124 116.544C242.425 117.372 242.407 118.506 243.084 119.078C243.762 119.649 244.877 119.442 245.575 118.615C246.274 117.787 246.292 116.653 245.615 116.081C244.938 115.51 243.822 115.717 243.124 116.544Z" fill="#F37A50"/>
<path d="M244.068 118.662C244.034 118.653 244.001 118.636 243.972 118.611C243.561 118.252 243.429 117.778 243.62 117.344C243.816 116.9 244.292 116.615 244.754 116.666C244.884 116.681 244.978 116.798 244.963 116.928C244.949 117.058 244.832 117.151 244.702 117.137C244.449 117.109 244.164 117.283 244.054 117.535C243.947 117.777 244.029 118.032 244.284 118.254C244.382 118.341 244.392 118.49 244.306 118.589C244.245 118.658 244.152 118.684 244.068 118.662Z" fill="#DE623C"/>
<path d="M246.491 153.903C248.208 153.359 252.188 157.087 252.049 157.701C246.939 167.075 233.847 170.924 233.847 170.924L231.559 169.196C231.559 169.196 240.375 161.772 246.491 153.903Z" fill="#F37A50"/>
<path d="M233.847 170.924C233.592 173.369 229.95 176.556 226.764 176.783C223.577 177.011 224.601 173.938 225.853 173.141C227.105 172.345 228.908 171.552 228.462 170.924C228.015 170.296 227.217 170.462 226.65 169.727C226.143 169.072 228.624 167.778 231.559 169.196C232.547 169.942 233.847 170.924 233.847 170.924Z" fill="#F37A50"/>
<path d="M236.446 121.488C236.538 121.925 236.226 122.36 235.749 122.461C235.272 122.562 234.81 122.29 234.717 121.853C234.625 121.416 234.937 120.98 235.414 120.879C235.892 120.779 236.354 121.051 236.446 121.488Z" fill="white"/>
<path d="M212.67 207.834C212.67 207.834 210.939 205.665 209.138 205.762C209.138 205.762 205.805 206.418 204.822 207.993C204.513 208.488 204.786 209.415 205.016 210.002C205.159 210.367 205.537 210.734 206.573 210.909C208.103 211.168 210.12 211.178 213.634 209.731C217.85 207.995 218.612 208.365 220.156 207.622C221.756 206.851 220.935 204.879 220.204 202.948C220.204 202.948 219.321 205.556 212.67 207.834Z" fill="#272627"/>
<path d="M213.308 202.572C213.308 202.572 211.52 204.023 209.049 204.96C207.667 205.485 203.964 206.748 204.926 209.2C205.07 209.566 205.447 209.933 206.483 210.108C208.014 210.367 210.031 210.377 213.545 208.929C217.76 207.193 218.522 207.564 220.066 206.82C221.666 206.05 220.573 203.833 219.841 201.902C219.87 202.414 219.819 203.774 216.945 205.382C216.088 205.863 216.277 201.762 213.308 202.572Z" fill="#343434"/>
<path d="M321.532 191.177H283.57C281.016 191.177 278.945 189.106 278.945 186.551V157.55C278.945 155.563 280.555 153.953 282.542 153.953H322.561C324.547 153.953 326.157 155.563 326.157 157.55V186.551C326.157 189.106 324.086 191.177 321.532 191.177Z" fill="#B3B3B4"/>
<path d="M328.124 191.626H294.368C292.064 191.626 290.197 189.758 290.197 187.455V157.196C290.197 155.405 291.649 153.953 293.44 153.953H328.124V191.626Z" fill="#D4D4D4"/>
<path d="M155.605 211.581C156.48 211.581 157.19 210.871 157.19 209.996V181.908H154.02V209.996C154.02 210.871 154.729 211.581 155.605 211.581Z" fill="#666666"/>
<path d="M144.481 211.581C145.356 211.581 146.066 210.871 146.066 209.996V181.908H142.896V209.996C142.896 210.871 143.605 211.581 144.481 211.581Z" fill="#666666"/>
<path d="M129.884 211.581C130.76 211.581 131.469 210.871 131.469 209.996V181.908H128.299V209.996C128.299 210.871 129.009 211.581 129.884 211.581Z" fill="#666666"/>
<path d="M118.76 211.581C119.636 211.581 120.345 210.871 120.345 209.996V181.908H117.175V209.996C117.175 210.871 117.885 211.581 118.76 211.581Z" fill="#666666"/>
<path d="M116.13 174.95H132.515V135.659H116.13V174.95Z" fill="#B3B4B6"/>
<path d="M167.452 178.679H119.916V167.271H160.812C164.479 167.271 167.452 170.243 167.452 173.911L167.452 178.679Z" fill="#D5D5D5"/>
<path d="M119.916 139.444V173.647C119.916 174.028 120.224 174.336 120.604 174.336H163.707C165.798 174.336 167.493 176.031 167.493 178.122C167.493 180.213 165.798 181.908 163.707 181.908H119.916H116.13C114.039 181.908 112.344 180.213 112.344 178.122V174.336V139.444C112.344 137.353 114.039 135.658 116.13 135.658C118.221 135.658 119.916 137.353 119.916 139.444Z" fill="#666666"/>
<path d="M98.3457 194.335L103.189 209.777C103.318 210.189 103.533 210.436 103.764 210.436C104.191 210.436 104.517 209.612 104.45 208.702L103.395 194.335H98.3457Z" fill="#666666"/>
<path d="M53.6774 194.335L48.8342 209.777C48.7051 210.189 48.4896 210.436 48.2592 210.436C47.8322 210.436 47.5063 209.612 47.5732 208.702L48.6277 194.335H53.6774Z" fill="#666666"/>
<path d="M30.6404 194.335L25.7973 209.777C25.668 210.189 25.4526 210.436 25.2222 210.436C24.7952 210.436 24.4693 209.612 24.5361 208.702L25.5904 194.335H30.6404Z" fill="#666666"/>
<path d="M58.3955 194.903H101.876C104.872 194.903 107.301 192.474 107.301 189.478V161.898C107.301 159.569 105.412 157.68 103.083 157.68H58.3955V194.903Z" fill="#B3B4B6"/>
<path d="M47.5645 194.903H91.0446C94.0409 194.903 96.4699 192.474 96.4699 189.478V161.898C96.4699 159.569 94.5812 157.68 92.2513 157.68H47.5645V194.903Z" fill="#666666"/>
<path d="M38.1025 167.094H79.0151V147.823C79.0151 145.518 77.1467 143.65 74.8417 143.65H38.1025V167.094Z" fill="#B3B4B6"/>
<path d="M34.2207 166.457H91.6191C94.3511 166.457 96.5655 168.671 96.5655 171.403V177.108H34.2207V166.457Z" fill="#D5D5D5"/>
<path d="M96.5655 175.87H34.2207V194.931H96.5655V175.87Z" fill="#B3B4B6"/>
<path d="M25.5596 167.094H38.1027V143.65H29.6086C27.3723 143.65 25.5596 145.463 25.5596 147.699V167.094Z" fill="#666666"/>
<path d="M107.448 189.68L109.828 193.009C109.828 193.009 111.954 195.719 114.489 194.446C117.023 193.174 115.9 189.104 115.9 189.104L112.988 185.27L107.448 189.68Z" fill="#F37A50"/>
<path d="M115.8 188.663C115.8 188.663 118.359 188.639 121.139 187.691C122.694 187.161 126.76 185.62 127.673 188.402C127.809 188.817 127.745 189.398 126.982 190.282C125.855 191.588 124.135 193.025 120.1 194.275C115.26 195.775 114.87 196.632 113.022 197.089C111.105 197.563 110.471 194.89 109.73 192.718C110.068 193.176 111.076 194.305 114.676 193.647C115.75 193.45 112.683 190.072 115.8 188.663Z" fill="#272627"/>
<path d="M87.2891 201.126V203.384C87.2891 203.384 87.4426 206.825 90.2441 207.264C93.0456 207.703 94.4991 203.738 94.4991 203.738L94.3962 200.182L87.2891 201.126Z" fill="#F37A50"/>
<path d="M79.0685 147.403C77.7375 147.094 73.912 151.373 74.0536 151.829C77.5799 156.633 89.0315 159.329 89.0315 159.329L90.8964 158.112C90.8964 158.112 84.1608 152.992 79.0685 147.403Z" fill="#EF83B3"/>
<path d="M69.0937 133.89C69.496 137.858 72.8227 151.078 74.054 151.829L79.0689 147.403C79.0689 147.403 75.6561 133.516 75.0861 131.361C74.1077 127.627 68.4245 127.413 69.0937 133.89Z" fill="#EF83B3"/>
<path d="M81.9265 111.973C82.2918 107.001 80.8544 102.609 76.8903 100.373C72.8724 98.1054 67.8391 100.329 67.8391 100.329C67.8387 100.329 63.5787 98.8133 59.7178 103.066C55.8568 107.319 58.7774 111.062 57.1977 114.164C56.2623 116.001 51.506 116.38 52.7346 122.363C53.089 124.089 55.1644 125.25 56.9221 125.365C60.0104 125.568 62.8865 124.374 64.1384 125.568C68.2638 129.503 77.406 128.08 78.6854 124.481C79.0821 123.365 87.306 125.524 86.4855 117.924C86.0696 114.073 81.6003 116.415 81.9265 111.973Z" fill="#272627"/>
<path d="M72.1471 121.847C72.1471 121.847 71.6133 126.736 71.4429 128.539L64.8613 128.733C66.8722 125.619 65.9655 116.744 65.9655 116.744L72.1471 121.847Z" fill="#F37A50"/>
<path d="M62.5337 115.596C63.9024 121.312 68.6512 125.075 73.1405 124C77.6298 122.925 80.1597 117.42 78.791 111.704C77.4224 105.988 72.6735 102.226 68.1842 103.301C63.6948 104.375 61.1651 109.88 62.5337 115.596Z" fill="#F37A50"/>
<path d="M76.6869 113.205C76.8845 113.602 77.3665 113.764 77.7634 113.566C78.1603 113.368 78.3217 112.886 78.1241 112.489C77.9264 112.093 77.4444 111.931 77.0476 112.129C76.6508 112.326 76.4892 112.809 76.6869 113.205Z" fill="black"/>
<path d="M70.3814 114.761C70.5954 115.19 71.117 115.365 71.5466 115.151C71.9762 114.937 72.1511 114.415 71.9371 113.986C71.7231 113.556 71.2013 113.381 70.7717 113.595C70.3421 113.809 70.1675 114.331 70.3814 114.761Z" fill="black"/>
<path d="M69.4207 114.041C69.48 114.011 69.5299 113.962 69.56 113.898C69.9955 112.958 71.1723 112.775 71.184 112.773C71.3486 112.749 71.4634 112.596 71.4395 112.431C71.4158 112.266 71.2636 112.152 71.0986 112.175C71.0372 112.184 69.5869 112.402 69.0114 113.643C68.9413 113.795 69.0072 113.975 69.1587 114.045C69.2454 114.085 69.3414 114.08 69.4207 114.041Z" fill="#272627"/>
<path d="M78.4381 112.042C78.467 112.027 78.4942 112.008 78.5182 111.984C78.6356 111.865 78.6344 111.674 78.5158 111.556C77.5939 110.646 76.4577 111.023 76.4098 111.04C76.2524 111.094 76.1681 111.266 76.2227 111.424C76.2769 111.581 76.4481 111.665 76.6055 111.612C76.6428 111.599 77.4426 111.346 78.091 111.986C78.1853 112.079 78.3256 112.098 78.4381 112.042Z" fill="#272627"/>
<path d="M76.1711 114.951C76.6115 115.404 76.9979 115.871 77.4183 116.136C77.5601 116.226 77.6055 116.414 77.5232 116.56C77.1834 117.162 76.1916 117.658 75.5834 117.917C75.4948 117.955 75.4218 117.838 75.4945 117.775C76.1083 117.236 76.3719 116.84 76.4827 116.622C76.5377 116.514 76.5363 116.387 76.4814 116.279C76.3556 116.03 76.1051 115.523 75.9354 115.103C75.8769 114.958 76.062 114.839 76.1711 114.951Z" fill="#DE623C"/>
<path d="M64.6942 115.633C65.785 116.482 66.1063 117.893 65.4118 118.786C64.7172 119.679 63.2699 119.714 62.1791 118.866C61.0881 118.017 60.7668 116.605 61.4615 115.713C62.156 114.82 63.6034 114.784 64.6942 115.633Z" fill="#F37A50"/>
<path d="M64.0733 118.527C64.1139 118.507 64.1507 118.477 64.1799 118.438C64.5987 117.881 64.6381 117.255 64.2852 116.763C63.924 116.26 63.2529 116.029 62.6899 116.215C62.5313 116.268 62.4454 116.439 62.4978 116.597C62.55 116.756 62.721 116.842 62.8795 116.789C63.1881 116.687 63.5898 116.831 63.7942 117.115C63.9908 117.389 63.9561 117.73 63.6968 118.075C63.5965 118.208 63.6233 118.398 63.7567 118.498C63.8513 118.569 63.974 118.576 64.0733 118.527Z" fill="#DE623C"/>
<path d="M74.0244 121.082C71.8394 121.082 70.927 119.725 70.88 119.653C70.7797 119.498 70.8236 119.291 70.9781 119.191C71.1322 119.091 71.338 119.134 71.4386 119.288C71.49 119.365 72.6816 121.081 75.7962 120.123C75.9723 120.069 76.1589 120.168 76.2132 120.344C76.2673 120.52 76.1684 120.707 75.9923 120.761C75.2457 120.99 74.592 121.082 74.0244 121.082Z" fill="#DE623C"/>
<path d="M62.4234 115.091C67.782 114.373 75.2794 108.914 75.8945 106.112C74.8581 102.746 69.3358 101.055 66.2175 102.614C63.0993 104.173 60.1537 110.855 62.4234 115.091Z" fill="#272627"/>
<path d="M67.0449 168.627L94.2326 167.466C94.2326 167.466 95.5738 160.68 94.5649 157.989C93.556 155.299 68.5764 155.854 68.5764 155.854L67.0449 168.627Z" fill="#343434"/>
<path d="M59.0497 151.204C58.313 152.907 55.4418 157.974 55.719 162.082C56.0052 166.321 58.9966 170.013 64.0593 169.932C64.0593 169.932 73.6014 164.508 71.536 153.397C71.536 153.397 66.5407 151.446 59.0497 151.204Z" fill="#343434"/>
<path d="M63.3042 170.9L87.2527 173.159C87.2527 173.159 95.4678 169.692 95.4211 166.748C95.3744 163.804 71.2441 155.748 71.2441 155.748C57.0918 151.62 52.3739 169.186 63.3042 170.9Z" fill="#343434"/>
<path d="M95.4218 166.748L94.9415 200.529C94.9415 200.529 88.9632 203.048 86.8681 200.548C85.8794 189.083 81.1714 178.926 86.4273 171.937C93.467 162.575 95.4218 166.748 95.4218 166.748Z" fill="#343434"/>
<path d="M94.5077 157.91L114.437 185.279C114.437 185.279 109.989 191.224 106.883 190.528C101.524 183.748 90.6813 175.797 90.6119 167.264C90.5192 155.835 94.5077 157.91 94.5077 157.91Z" fill="#343434"/>
<path d="M74.3676 164.175C72.7317 163.795 70.509 163.626 70.7496 162.788C70.9902 161.95 71.9041 161.827 72.2344 160.829C72.5272 159.945 69.436 159.498 66.8466 162.055L66.5904 161.755L64.7178 164.38L65.0495 164.63C66.3202 167.108 71.3198 169.348 74.7639 168.405C78.2512 167.451 76.0033 164.555 74.3676 164.175Z" fill="#F37A50"/>
<path d="M65.7173 126.437L71.5462 127.496C73.7691 131.66 76.2227 135.817 76.2284 138.323C76.236 141.623 71.708 155.291 71.708 155.291C65.75 156.076 60.897 155.323 57.2178 152.936C60.091 144.809 55.185 134.777 60.5077 129.294C61.836 127.926 63.9613 127.319 65.7173 126.437Z" fill="#272627"/>
<path d="M92.0547 158.257C91.9908 158.174 91.9359 158.137 91.918 158.045C91.918 158.045 91.8719 158.054 91.881 158.1C91.2436 158.749 90.3146 158.883 89.8849 158.394C89.8209 158.31 89.757 158.228 89.693 158.145C89.1679 158.39 88.5889 158.359 88.2873 158.036C88.1684 157.916 88.0864 157.741 88.0505 157.557C87.5345 157.849 86.9554 157.819 86.5438 157.421C86.068 156.941 86.1457 156.114 86.709 155.575C87.2724 155.035 88.0723 154.975 88.539 155.409C88.6578 155.529 88.7308 155.658 88.7666 155.842C89.385 155.339 90.1848 155.279 90.5964 155.676C90.6605 155.759 90.7244 155.842 90.7883 155.925C91.3134 155.68 91.8924 155.71 92.1942 156.033C92.3131 156.154 92.3949 156.328 92.4218 156.466C92.846 156.193 93.4249 156.223 93.7266 156.546C94.1383 156.944 94.0338 157.633 93.5996 158.099C93.1656 158.566 92.4575 158.608 92.0547 158.257Z" fill="#F37A50"/>
<path d="M58.7498 131.416C55.941 135.793 46.5532 145.294 47.4128 151.429C48.0147 155.723 64.3448 165.091 64.3448 165.091L66.7461 161.525L56.1964 149.304C56.1964 149.304 65.4289 136.307 66.5614 133.76C68.542 129.305 63.1667 124.535 58.7498 131.416Z" fill="#EF83B3"/>
<path d="M94.6747 203.322C94.6747 203.322 96.7706 204.791 99.583 205.637C101.156 206.11 105.36 207.221 104.485 210.014C104.354 210.432 103.965 210.867 102.83 211.143C101.153 211.55 98.9178 211.719 94.9089 210.389C90.0998 208.794 89.2838 209.264 87.5142 208.56C85.6799 207.831 86.7184 205.288 87.3789 203.091C87.3871 203.66 87.5502 205.164 90.8616 206.722C91.85 207.188 91.3194 202.656 94.6747 203.322Z" fill="#272627"/>
<path d="M36.3906 194.903H62.3458C65.3421 194.903 67.7712 192.474 67.7712 189.478V161.898C67.7712 159.569 65.8824 157.68 63.5526 157.68H36.3906V194.903Z" fill="#B3B3B4"/>
<path d="M25.5596 194.903H51.5146C54.511 194.903 56.94 192.474 56.94 189.478V161.898C56.94 159.569 55.0513 157.68 52.7214 157.68H25.5596V194.903Z" fill="#666666"/>
<path d="M176.323 71.252H211.796C216.187 71.252 219.747 74.8115 219.747 79.2024V95.7388C219.747 100.13 216.187 103.689 211.796 103.689H211.533L214.38 113.227C214.505 113.647 214.021 113.981 213.673 113.716L200.529 103.689H176.323C171.932 103.689 168.373 100.13 168.373 95.7388V79.2024C168.373 74.8115 171.932 71.252 176.323 71.252Z" fill="#EF83B3"/>
<path d="M211.779 85.1377H177.722C175.549 85.1377 173.787 83.3758 173.787 81.2025C173.787 79.029 175.549 77.2671 177.722 77.2671H211.779C213.953 77.2671 215.715 79.029 215.715 81.2025C215.715 83.3758 213.953 85.1377 211.779 85.1377Z" fill="white"/>
<path d="M211.779 97.1556H177.722C175.549 97.1556 173.787 95.3937 173.787 93.2204C173.787 91.047 175.549 89.2852 177.722 89.2852H211.779C213.953 89.2852 215.715 91.047 215.715 93.2204C215.715 95.3937 213.953 97.1556 211.779 97.1556Z" fill="white"/>
<path d="M332.996 73.5498H300.204C296.145 73.5498 292.854 76.8404 292.854 80.8992V96.1857C292.854 100.245 296.145 103.535 300.204 103.535H300.447L297.815 112.352C297.7 112.74 298.148 113.05 298.469 112.804L310.619 103.535H332.996C337.055 103.535 340.345 100.245 340.345 96.1857V80.8991C340.345 76.8403 337.055 73.5498 332.996 73.5498Z" fill="#EF83B3"/>
<path d="M332.719 86.4698H299.702C298.065 86.4698 296.737 85.1423 296.737 83.5048V82.7632C296.737 81.1257 298.065 79.7983 299.702 79.7983H332.719C334.357 79.7983 335.684 81.1257 335.684 82.7632V83.5048C335.684 85.1422 334.357 86.4698 332.719 86.4698Z" fill="white"/>
<path d="M316.602 96.5566H301.141C299.299 96.5566 297.806 95.0632 297.806 93.2209C297.806 91.3785 299.299 89.8853 301.141 89.8853H316.602C318.444 89.8853 319.938 91.3787 319.938 93.2209C319.938 95.0632 318.444 96.5566 316.602 96.5566Z" fill="white"/>
<path d="M241.04 25.1709H208.248C204.189 25.1709 200.898 28.4614 200.898 32.5203V47.8068C200.898 51.8658 204.189 55.1563 208.248 55.1563H208.491L205.859 63.9733C205.743 64.3611 206.191 64.6706 206.513 64.4252L218.663 55.1563H241.039C245.098 55.1563 248.389 51.8658 248.389 47.8068V32.5203C248.389 28.4614 245.098 25.1709 241.04 25.1709Z" fill="#CB5A90"/>
<path d="M230.503 38.0909H208.117C206.275 38.0909 204.781 36.5974 204.781 34.7551C204.781 32.9128 206.275 31.4194 208.117 31.4194H230.503C232.345 31.4194 233.838 32.913 233.838 34.7551C233.838 36.5974 232.345 38.0909 230.503 38.0909Z" fill="white"/>
<path d="M241.709 48.1777H209.185C207.343 48.1777 205.85 46.6843 205.85 44.842C205.85 42.9996 207.343 41.5063 209.185 41.5063H241.709C243.552 41.5063 245.045 42.9998 245.045 44.842C245.045 46.6843 243.552 48.1777 241.709 48.1777Z" fill="white"/>
<path d="M75.0539 48.8589H118.078C123.403 48.8589 127.721 53.176 127.721 58.5016V78.5579C127.721 83.8833 123.403 88.2005 118.078 88.2005H117.758L121.212 99.7689C121.364 100.278 120.776 100.684 120.353 100.362L104.413 88.2006H75.0539C69.7284 88.2006 65.4111 83.8834 65.4111 78.558V58.5016C65.4111 53.176 69.7284 48.8589 75.0539 48.8589Z" fill="#CB5A90"/>
<path d="M75.4165 65.8102H118.736C120.884 65.8102 122.626 64.0685 122.626 61.9201V60.9473C122.626 58.7987 120.884 57.0571 118.736 57.0571H75.4165C73.2681 57.0571 71.5264 58.7989 71.5264 60.9473V61.9201C71.5264 64.0686 73.2682 65.8102 75.4165 65.8102Z" fill="white"/>
<path d="M96.5622 79.0443H116.847C119.264 79.0443 121.224 77.0849 121.224 74.6676C121.224 72.2506 119.264 70.291 116.847 70.291H96.5622C94.1451 70.291 92.1855 72.2506 92.1855 74.6676C92.1855 77.0848 94.145 79.0443 96.5622 79.0443Z" fill="white"/>
<path d="M282.238 65.9798C277.975 65.9798 274.506 62.5111 274.506 58.2476C274.506 53.9843 277.975 50.5156 282.238 50.5156C286.501 50.5156 289.97 53.9843 289.97 58.2476C289.97 62.5111 286.501 65.9798 282.238 65.9798ZM282.238 52.6453C279.149 52.6453 276.636 55.1585 276.636 58.2476C276.636 61.3369 279.149 63.8501 282.238 63.8501C285.327 63.8501 287.84 61.3369 287.84 58.2476C287.84 55.1585 285.327 52.6453 282.238 52.6453Z" fill="white"/>
<path d="M126.022 56.9472C123.218 56.9472 120.937 54.666 120.937 51.862C120.937 49.0581 123.218 46.7769 126.022 46.7769C128.826 46.7769 131.107 49.0581 131.107 51.862C131.107 54.666 128.826 56.9472 126.022 56.9472ZM126.022 48.1774C123.99 48.1774 122.337 49.8302 122.337 51.8618C122.337 53.8936 123.99 55.5465 126.022 55.5465C128.053 55.5465 129.706 53.8936 129.706 51.8618C129.706 49.8302 128.053 48.1774 126.022 48.1774Z" fill="white"/>
<path d="M105.277 24.8995C103.083 24.8995 101.299 23.1148 101.299 20.9212C101.299 18.7276 103.083 16.9429 105.277 16.9429C107.471 16.9429 109.255 18.7276 109.255 20.9212C109.255 23.1149 107.471 24.8995 105.277 24.8995ZM105.277 18.0387C103.688 18.0387 102.395 19.3318 102.395 20.9212C102.395 22.5106 103.688 23.8037 105.277 23.8037C106.866 23.8037 108.16 22.5106 108.16 20.9212C108.16 19.3318 106.866 18.0387 105.277 18.0387Z" fill="white"/>
<path d="M184.074 19.8143C184.074 22.8186 181.638 25.2541 178.634 25.2541C175.63 25.2541 173.194 22.8185 173.194 19.8143C173.194 16.8099 175.63 14.3745 178.634 14.3745C181.638 14.3745 184.074 16.8099 184.074 19.8143Z" fill="#CB5A90"/>
<path d="M295.41 40.9529C295.41 43.9572 292.974 46.3927 289.97 46.3927C286.966 46.3927 284.53 43.9571 284.53 40.9529C284.53 37.9486 286.966 35.5132 289.97 35.5132C292.974 35.5132 295.41 37.9486 295.41 40.9529Z" fill="white"/>
<path d="M31.9978 103.868C31.9978 106.306 30.0214 108.282 27.5833 108.282C25.1454 108.282 23.1689 106.306 23.1689 103.868C23.1689 101.43 25.1454 99.4536 27.5833 99.4536C30.0214 99.4536 31.9978 101.43 31.9978 103.868Z" fill="#CB5A90"/>
<path d="M260.874 132.501C256.635 133.789 254.525 142.713 252.72 152.054C249.829 157.739 247.67 162.11 244.896 167.842C247.485 168.429 249.63 166.798 249.63 166.798C249.63 166.798 256.217 160.746 259.272 154.088C259.971 152.565 260.21 149.499 260.606 148.136C260.78 143.865 260.874 132.501 260.874 132.501Z" fill="#E7E0E1"/>
<path d="M238.518 206.189L234.773 207.409L232.99 204.119C233.144 203.988 233.243 201.716 233.281 199.989L239.487 200.427C239.301 202.18 238.944 204.479 238.518 206.189Z" fill="#F37A50"/>
<path d="M231.928 208.638C231.928 208.638 230.463 206.512 228.785 206.483C228.785 206.483 225.647 206.874 224.63 208.273C224.311 208.712 224.504 209.591 224.679 210.15C224.788 210.499 225.115 210.864 226.065 211.095C227.469 211.436 229.342 211.577 232.699 210.463C236.727 209.127 237.41 209.521 238.893 208.932C240.429 208.321 239.796 206.436 239.243 204.596C239.243 204.596 238.253 206.959 231.928 208.638Z" fill="#343434"/>
<path d="M232.865 203.794C232.865 203.794 231.109 205.025 228.754 205.733C227.436 206.13 223.915 207.06 224.648 209.4C224.758 209.749 225.084 210.114 226.035 210.345C227.439 210.686 229.311 210.827 232.668 209.713C236.696 208.377 237.38 208.771 238.862 208.182C240.398 207.571 239.528 205.441 238.975 203.601C238.968 204.078 238.832 205.337 236.058 206.643C235.23 207.032 235.675 203.237 232.865 203.794Z" fill="#343434"/>
<path d="M233.589 206.624C233.452 206.624 233.324 206.537 233.28 206.399C232.913 205.255 231.705 205.253 231.654 205.253C231.476 205.255 231.329 205.112 231.326 204.933C231.324 204.755 231.466 204.608 231.644 204.605C232.243 204.593 233.485 204.914 233.897 206.201C233.952 206.372 233.858 206.554 233.688 206.609C233.655 206.619 233.621 206.624 233.589 206.624Z" fill="#121212"/>
<path d="M232.127 207.326C231.989 207.326 231.862 207.239 231.818 207.101C231.451 205.957 230.243 205.955 230.192 205.955C230.014 205.957 229.867 205.814 229.864 205.635C229.862 205.457 230.004 205.31 230.182 205.307C230.781 205.295 232.023 205.617 232.435 206.903C232.49 207.074 232.396 207.256 232.226 207.311C232.193 207.321 232.159 207.326 232.127 207.326Z" fill="#121212"/>
<path d="M253.494 206.63L249.844 208.111L247.835 204.955C247.979 204.814 248.356 202.395 248.273 200.67L254.056 200.815C253.994 202.576 253.8 204.895 253.494 206.63Z" fill="#F37A50"/>
<path d="M256.853 163.732C248.448 165.854 236.731 172.173 235.622 173.506C233.333 176.261 232.721 185.249 232.619 201.192H240.099C242.021 188.614 244.246 183.038 244.332 177.976C244.332 177.976 250.888 177.992 260.455 173.547C265.171 171.356 270.07 168.84 268.326 164.564C266.937 161.157 264.868 161.709 256.853 163.732Z" fill="#CB5A90"/>
<path d="M266.42 163.838C259.399 165.04 250.509 173.759 249.401 175.093C247.111 177.847 247.391 186.712 247.289 202.655L254.746 202.844C255.397 194.545 258.276 184.893 257.863 178.858C257.863 178.858 264.401 176.978 274.516 173.983C280.049 172.344 281.676 171.362 282.506 167.622C282.788 166.349 283.09 163.425 282.487 162.817C279.816 160.128 273.065 162.7 266.42 163.838Z" fill="#CB5A90"/>
<path d="M247.093 209.537C247.093 209.537 245.483 207.519 243.806 207.609C243.806 207.609 240.703 208.219 239.788 209.686C239.5 210.146 239.754 211.01 239.968 211.555C240.102 211.896 240.454 212.237 241.418 212.4C242.842 212.642 244.72 212.651 247.991 211.303C251.915 209.687 252.624 210.032 254.061 209.34C255.551 208.623 254.787 206.787 254.106 204.99C254.106 204.99 253.285 207.417 247.093 209.537Z" fill="#343434"/>
<path d="M247.687 204.64C247.687 204.64 246.022 205.99 243.723 206.863C242.436 207.351 238.989 208.527 239.885 210.809C240.019 211.15 240.37 211.491 241.335 211.654C242.759 211.896 244.637 211.905 247.908 210.557C251.831 208.941 252.541 209.286 253.978 208.594C255.467 207.877 254.45 205.814 253.769 204.017C253.795 204.493 253.747 205.759 251.073 207.256C250.274 207.703 250.451 203.885 247.687 204.64Z" fill="#343434"/>
<path d="M249.242 207.494C249.105 207.494 248.977 207.406 248.933 207.268C248.566 206.125 247.359 206.123 247.307 206.123C247.129 206.124 246.982 205.981 246.98 205.803C246.977 205.624 247.119 205.478 247.297 205.474C247.897 205.463 249.138 205.784 249.551 207.071C249.605 207.241 249.512 207.424 249.341 207.478C249.308 207.489 249.275 207.494 249.242 207.494Z" fill="#121212"/>
<path d="M247.78 208.196C247.643 208.196 247.515 208.108 247.471 207.971C247.104 206.827 245.897 206.825 245.845 206.825C245.667 206.827 245.52 206.684 245.518 206.505C245.515 206.327 245.657 206.18 245.835 206.177C246.435 206.165 247.676 206.486 248.089 207.773C248.143 207.943 248.05 208.126 247.879 208.181C247.846 208.191 247.813 208.196 247.78 208.196Z" fill="#121212"/>
<path d="M271.417 125.359H271.413L268.587 125.369L267.946 132.046L271.246 133.789L274.765 132.066L274.197 125.369L271.417 125.359Z" fill="#F37A50"/>
<path d="M277.354 133.714C275.301 133.021 273.141 132.699 270.975 132.763C263.64 132.763 262.517 134.616 262.517 134.573L267.96 149.521L270.975 151.009L274.274 150.031C274.274 150.031 278.552 134.159 277.354 133.714Z" fill="#FFD0B7"/>
<path d="M282.837 163.437C282.837 163.437 276.864 164.966 271.32 165.003C265.777 164.962 259.917 162.968 259.917 162.968C259.917 162.968 260.662 152.786 260.586 148.877C260.478 144.387 260.874 138.434 260.874 132.501C260.874 132.501 264.806 131.868 267.025 131.594C267.385 131.55 267.7 131.515 267.946 131.494C267.946 131.494 269.21 134.145 274.717 131.494C275.006 131.465 275.364 131.467 275.765 131.49C278.078 131.628 281.804 132.501 281.804 132.501C281.804 138.418 282.043 144.217 281.964 148.707C282.21 152.712 282.837 163.437 282.837 163.437Z" fill="#B0B0B0"/>
<path d="M268.251 145.327L266.909 144.549C266.909 144.549 266.537 142.645 264.382 142.6C264.629 143.398 264.984 144.549 264.984 144.549C264.984 144.549 263.923 145.373 261.407 143.963C258.948 143.411 259.998 145.204 259.183 145.333C257.98 145.523 260.06 147.886 262.516 148.248C265.693 148.716 266.071 148.065 266.071 148.065L267.869 148.694L268.251 145.327Z" fill="#F37A50"/>
<path d="M280.67 147.361C276.184 147.047 268.531 144.832 268.531 144.832C267.307 146.71 267.645 149.205 267.645 149.205C274.612 155.313 285.097 157.287 288.314 155.817C291.251 154.475 289.177 136.596 281.803 132.501L281.548 132.525C279.02 136.803 280.67 147.361 280.67 147.361Z" fill="#E7E0E1"/>
<path d="M245.461 168.367C245.502 168.302 245.528 168.232 245.546 168.16C245.557 168.167 245.567 168.175 245.578 168.182C246.228 168.597 246.995 168.556 247.293 168.089C247.342 168.013 247.373 167.929 247.391 167.842C247.869 167.953 248.321 167.838 248.534 167.505C248.618 167.373 248.654 167.221 248.649 167.062C249.119 167.204 249.608 167.076 249.845 166.703C250.143 166.237 249.934 165.572 249.38 165.218C248.825 164.864 248.135 164.955 247.837 165.421C247.762 165.539 247.719 165.67 247.706 165.805C247.103 165.509 246.45 165.582 246.181 166.003C246.133 166.08 246.101 166.163 246.082 166.251C245.605 166.139 245.153 166.254 244.94 166.587C244.862 166.71 244.825 166.85 244.824 166.997C244.412 166.852 243.974 166.956 243.765 167.284C243.514 167.678 243.69 168.239 244.158 168.538C244.626 168.837 245.21 168.76 245.461 168.367Z" fill="#F37A50"/>
<path d="M275.765 131.49V131.491C275.382 132.13 274.84 132.614 274.076 132.998C272.865 133.609 271.22 133.868 270.208 133.789C269.406 133.726 268.516 133.398 267.946 132.947C267.341 132.467 267.078 131.854 267.024 131.594C267.385 131.55 267.755 131.494 268.001 131.472C268.001 131.472 269.21 134.145 274.717 131.494C275.006 131.465 275.364 131.467 275.765 131.49Z" fill="#E7E0E1"/>
<path d="M270.566 110.081C270.518 104.714 278.018 103.195 280.486 104.809C286.575 108.789 284.853 111.052 284.853 114.302C284.853 117.553 285.315 121.015 288.014 120.758C292.001 120.378 296.803 122.182 294.822 125.695C292.733 129.397 291.572 127.516 294.822 130.157C298.073 132.798 290.948 137.17 284.853 132.7C278.759 128.231 280.397 127.523 282.429 125.695C284.46 123.866 277.58 121.308 275.36 120.758C273.139 120.208 270.566 110.081 270.566 110.081Z" fill="#201F1D"/>
<path d="M277.686 119.223C278.442 124.213 275.877 128.739 271.958 129.333C268.039 129.926 264.249 126.362 263.494 121.372C262.738 116.382 265.303 111.856 269.222 111.262C273.141 110.669 276.931 114.233 277.686 119.223Z" fill="#F37A50"/>
<path d="M265.653 121.887C265.624 122.267 265.293 122.551 264.913 122.522C264.533 122.492 264.249 122.161 264.279 121.781C264.308 121.402 264.639 121.118 265.019 121.147C265.398 121.176 265.682 121.508 265.653 121.887Z" fill="black"/>
<path d="M271.173 121.091C271.141 121.502 270.782 121.809 270.371 121.777C269.96 121.746 269.653 121.387 269.685 120.976C269.716 120.565 270.075 120.258 270.486 120.289C270.897 120.321 271.204 120.68 271.173 121.091Z" fill="black"/>
<path d="M271.705 120.208C271.648 120.203 271.593 120.181 271.548 120.139C270.898 119.531 269.903 119.765 269.893 119.768C269.754 119.802 269.613 119.717 269.579 119.578C269.545 119.439 269.677 119.228 269.807 119.17C270.265 118.966 271.106 118.852 271.964 119.655C272.069 119.752 272.013 120.021 271.915 120.126C271.859 120.186 271.781 120.214 271.705 120.208Z" fill="#272627"/>
<path d="M263.862 121.427C263.834 121.425 263.806 121.418 263.779 121.407C263.648 121.35 263.553 121.096 263.609 120.964C264.049 119.942 264.73 119.884 265.106 119.919C265.249 119.932 265.418 120.078 265.425 120.221C265.433 120.363 265.324 120.485 265.181 120.493C265.148 120.496 264.429 120.552 264.12 121.271C264.075 121.376 263.97 121.436 263.862 121.427Z" fill="#272627"/>
<path d="M267.06 122.752C266.804 123.23 266.594 123.707 266.31 124.025C266.214 124.132 266.22 124.298 266.323 124.4C266.745 124.817 267.681 124.993 268.244 125.063C268.326 125.073 268.359 124.96 268.284 124.925C267.651 124.625 267.339 124.36 267.197 124.206C267.126 124.13 267.097 124.024 267.117 123.922C267.162 123.687 267.25 123.209 267.291 122.822C267.305 122.689 267.124 122.634 267.06 122.752Z" fill="#DE623C"/>
<path d="M278.909 118.638C274.413 119.796 266.435 119.187 264.435 115.029C264.173 112.017 267.578 110.241 270.567 110.081C274.868 109.852 279.348 114.535 278.909 118.638Z" fill="#201F1D"/>
<path d="M276.145 118.966C275.454 120.162 275.686 121.589 276.664 122.155C277.642 122.721 278.996 122.21 279.687 121.015C280.378 119.82 280.146 118.392 279.168 117.826C278.19 117.261 276.836 117.771 276.145 118.966Z" fill="#F37A50"/>
<path d="M277.806 121.412C277.761 121.409 277.716 121.395 277.674 121.37C277.077 121.011 276.806 120.447 276.948 119.859C277.093 119.257 277.628 118.792 278.219 118.753C278.386 118.742 278.529 118.868 278.54 119.034C278.551 119.201 278.425 119.345 278.259 119.356C277.935 119.377 277.617 119.661 277.535 120.001C277.455 120.328 277.615 120.63 277.985 120.853C278.128 120.938 278.174 121.124 278.088 121.267C278.027 121.368 277.916 121.421 277.806 121.412Z" fill="#DE623C"/>
<path d="M271.279 125.661C271.25 125.502 271.166 125.37 271.022 125.443C270.654 125.627 270.041 125.919 269.435 126.138C268.828 126.356 268.17 126.523 267.769 126.616C267.612 126.652 267.627 126.809 267.71 126.948C268.056 127.522 269.001 127.966 269.93 127.631C270.86 127.295 271.386 126.254 271.279 125.661Z" fill="white"/>
<path d="M135.314 102.488C135.371 96.0916 126.433 94.2814 123.492 96.2048C116.237 100.949 118.288 103.645 118.288 107.518C118.288 111.392 114.941 111.671 111.726 111.365C106.974 110.912 104.047 116.909 106.408 121.095C108.897 125.507 110.445 128.965 106.571 132.112C102.698 135.26 111.171 144.217 118.434 138.891C125.698 133.565 129.646 128.591 127.225 126.412C124.804 124.233 126.955 115.867 129.601 115.211C132.247 114.556 135.314 102.488 135.314 102.488Z" fill="#201F1D"/>
<path d="M139.377 123.639C145.671 122.004 148.504 108.157 141.147 103.272C133.445 98.1572 122.853 102.886 121.703 110.928C120.554 118.971 127.302 123.546 127.302 123.546L139.377 123.639Z" fill="#272627"/>
<path d="M176.032 189.89L178.468 193.297C178.468 193.297 180.643 196.069 183.237 194.768C185.83 193.466 184.68 189.301 184.68 189.301L181.701 185.378L176.032 189.89Z" fill="#F37A50"/>
<path d="M184.579 188.849C184.579 188.849 187.197 188.825 190.042 187.856C191.634 187.313 195.794 185.736 196.728 188.582C196.867 189.007 196.802 189.602 196.022 190.507C194.868 191.843 193.108 193.314 188.98 194.593C184.027 196.127 183.627 197.004 181.736 197.472C179.775 197.956 179.126 195.222 178.368 192.999C178.714 193.468 179.745 194.623 183.428 193.95C184.528 193.749 181.39 190.292 184.579 188.849Z" fill="#272627"/>
<path d="M155.404 201.603V203.913C155.404 203.913 155.561 207.434 158.428 207.883C161.295 208.333 162.782 204.276 162.782 204.276L162.677 200.636L155.404 201.603Z" fill="#F37A50"/>
<path d="M144.421 144.051C143.023 144.039 140.158 149.166 140.401 149.59C143.791 153.35 157.033 153.736 157.033 153.736L158.623 152.105C158.623 152.105 150.754 148.495 144.421 144.051Z" fill="#C6C0C1"/>
<path d="M130.167 131.164C131.455 135.036 139.004 149.115 140.401 149.59L144.421 144.051C144.421 144.051 139.842 132.464 136.39 128.109C133.935 125.014 128.053 124.845 130.167 131.164Z" fill="#C6C0C1"/>
<path d="M131.595 121.384C131.595 121.384 131.86 125.95 132.092 127.789L126.683 130C124.953 123.26 126.372 115.975 126.372 115.975L131.595 121.384Z" fill="#F37A50"/>
<path d="M134.689 168.348L162.51 167.159C162.51 167.159 163.882 160.216 162.85 157.463C161.818 154.71 136.257 155.277 136.257 155.277L134.689 168.348Z" fill="#272627"/>
<path d="M126.507 150.519C125.754 152.261 122.816 157.446 123.099 161.65C123.392 165.988 126.453 169.765 131.634 169.683C131.634 169.683 141.398 164.132 139.284 152.763C139.284 152.763 134.173 150.766 126.507 150.519Z" fill="#272627"/>
<path d="M130.861 170.674L155.367 172.985C155.367 172.985 163.774 169.438 163.726 166.425C163.678 163.413 138.986 155.169 138.986 155.169C124.504 150.946 119.677 168.92 130.861 170.674Z" fill="#CB5A90"/>
<path d="M163.726 166.425L163.235 200.991C163.235 200.991 157.117 203.57 154.973 201.011C153.962 189.279 149.144 178.886 154.522 171.734C161.726 162.155 163.726 166.425 163.726 166.425Z" fill="#CB5A90"/>
<path d="M162.791 157.382L183.184 185.387C183.184 185.387 178.632 191.471 175.454 190.759C169.971 183.82 158.875 175.684 158.804 166.953C158.71 155.258 162.791 157.382 162.791 157.382Z" fill="#CB5A90"/>
<path d="M126.202 125.905L131.967 125.986C136.071 128.66 139.113 132.438 139.678 134.94C140.422 138.234 140.585 156.225 140.585 156.225C134.81 158.339 128.357 156.456 124.15 154.893C125.205 146.137 117.18 135.385 121.272 128.722C122.293 127.059 124.07 126.732 126.202 125.905Z" fill="#CBCBCB"/>
<path d="M162.962 203.849C162.962 203.849 165.107 205.352 167.985 206.218C169.594 206.703 173.896 207.839 173.001 210.698C172.867 211.125 172.468 211.571 171.307 211.853C169.591 212.269 167.304 212.442 163.202 211.081C158.281 209.449 157.446 209.93 155.635 209.21C153.758 208.464 154.821 205.862 155.496 203.613C155.505 204.196 155.672 205.735 159.06 207.329C160.072 207.805 159.529 203.168 162.962 203.849Z" fill="#272627"/>
<path d="M139.787 157.682H162.019L166.407 143.729C166.61 143.085 166.129 142.429 165.453 142.429H145.318C144.882 142.429 144.495 142.712 144.364 143.129L139.787 157.682Z" fill="#272627"/>
<path d="M141.474 157.682H162.751C163.319 157.682 163.822 157.313 163.992 156.771L168.094 143.729C168.297 143.085 167.815 142.429 167.14 142.429H147.005C146.568 142.429 146.182 142.712 146.051 143.129L141.474 157.682Z" fill="#121212"/>
<path d="M154.562 150.33C154.317 151.192 154.753 152.071 155.536 152.293C156.319 152.516 157.152 151.997 157.397 151.135C157.641 150.273 157.205 149.394 156.423 149.172C155.64 148.95 154.807 149.468 154.562 150.33Z" fill="#FCE4EC"/>
<path d="M129.737 155.616H141.473V157.647H127.913V157.439C127.913 156.432 128.73 155.616 129.737 155.616Z" fill="#272627"/>
<path d="M138.885 156.635C137.293 156.622 135.202 156.924 135.251 156.1C135.301 155.275 136.121 154.972 136.22 153.982C136.308 153.103 133.863 153.611 131.497 155.62L130.447 155.375L129.361 158.613L130.36 158.982C132.047 161.011 137.135 162.049 140.125 160.466C143.154 158.862 140.476 156.649 138.885 156.635Z" fill="#F37A50"/>
<path d="M118.785 131.271C116.824 135.582 110.668 144.749 112.243 150.167C113.346 153.96 129.686 159.511 129.686 159.511L131.238 155.554L119.884 147.106C119.884 147.106 127.362 135.394 128.05 132.95C129.254 128.676 121.869 124.491 118.785 131.271Z" fill="#C6C0C1"/>
<path d="M126.828 113.382C125.928 119.329 128.984 124.723 133.655 125.43C138.325 126.137 142.841 121.889 143.741 115.943C144.642 109.996 141.585 104.602 136.915 103.895C132.244 103.188 127.728 107.436 126.828 113.382Z" fill="#F37A50"/>
<path d="M141.169 116.557C141.204 117.01 141.599 117.348 142.052 117.313C142.504 117.278 142.843 116.884 142.808 116.431C142.773 115.979 142.378 115.64 141.925 115.675C141.473 115.71 141.135 116.105 141.169 116.557Z" fill="black"/>
<path d="M134.592 115.608C134.629 116.097 135.057 116.464 135.546 116.426C136.036 116.388 136.402 115.961 136.365 115.471C136.327 114.981 135.9 114.615 135.41 114.653C134.92 114.69 134.554 115.118 134.592 115.608Z" fill="black"/>
<path d="M133.958 114.556C134.025 114.551 134.092 114.523 134.145 114.473C134.919 113.75 136.106 114.029 136.118 114.032C136.283 114.072 136.451 113.971 136.492 113.805C136.532 113.64 136.375 113.389 136.22 113.319C135.674 113.076 134.672 112.94 133.649 113.897C133.524 114.013 133.592 114.334 133.708 114.459C133.775 114.53 133.867 114.563 133.958 114.556Z" fill="#272627"/>
<path d="M143.303 116.009C143.336 116.007 143.369 115.999 143.402 115.985C143.558 115.918 143.672 115.614 143.604 115.457C143.08 114.239 142.269 114.17 141.82 114.211C141.65 114.227 141.449 114.401 141.44 114.571C141.431 114.741 141.561 114.887 141.731 114.897C141.771 114.899 142.627 114.966 142.995 115.823C143.049 115.948 143.175 116.019 143.303 116.009Z" fill="#272627"/>
<path d="M139.493 117.588C139.799 118.158 140.048 118.726 140.388 119.104C140.502 119.232 140.494 119.431 140.372 119.551C139.868 120.049 138.753 120.258 138.082 120.342C137.984 120.354 137.945 120.219 138.034 120.177C138.789 119.819 139.16 119.503 139.33 119.32C139.415 119.229 139.449 119.104 139.426 118.982C139.372 118.702 139.267 118.132 139.218 117.672C139.201 117.513 139.417 117.447 139.493 117.588Z" fill="#DE623C"/>
<path d="M125.373 112.685C130.73 114.065 140.237 113.339 142.621 108.385C142.932 104.795 138.875 102.678 135.313 102.488C130.187 102.214 124.849 107.796 125.373 112.685Z" fill="#272627"/>
<path d="M128.666 113.076C129.49 114.501 129.213 116.202 128.047 116.876C126.882 117.55 125.269 116.942 124.445 115.518C123.621 114.093 123.898 112.392 125.064 111.718C126.229 111.044 127.842 111.652 128.666 113.076Z" fill="#F37A50"/>
<path d="M126.686 115.991C126.74 115.987 126.794 115.97 126.844 115.941C127.555 115.513 127.879 114.84 127.709 114.14C127.536 113.423 126.899 112.869 126.194 112.822C125.996 112.809 125.824 112.959 125.811 113.157C125.798 113.356 125.948 113.527 126.147 113.54C126.533 113.566 126.912 113.904 127.01 114.309C127.104 114.699 126.914 115.059 126.473 115.324C126.303 115.426 126.248 115.647 126.35 115.818C126.423 115.938 126.555 116.001 126.686 115.991Z" fill="#DE623C"/>
<path d="M134.465 121.054C134.499 120.864 134.599 120.708 134.772 120.794C135.21 121.014 135.94 121.362 136.663 121.622C137.386 121.883 138.17 122.082 138.647 122.192C138.835 122.236 138.817 122.423 138.718 122.588C138.306 123.272 137.18 123.801 136.072 123.402C134.964 123.002 134.337 121.761 134.465 121.054Z" fill="white"/>
</svg>
